<svg version="1" xmlns="http://www.w3.org/2000/svg" width="1024" height="1024" viewBox="0 0 768.000000 768.000000"><path d="M19.8 49.8c-6.5 2.3-13.3 8.3-16.5 14.5C1 68.7.6 70.8.6 77.5c0 8.6.7 10.4 9.9 26 1.9 3.3 4 6.9 4.6 8 .5 1.1 2 3.6 3.2 5.7 2.1 3.5 9.1 15.6 13.2 22.8 1.1 1.9 5.9 10.3 10.7 18.6l8.8 15h260c143-.1 260 .2 260 .6 0 .9-3.3 7-9.9 18.3-2.9 4.9-6.5 11-7.9 13.5-1.4 2.5-3.4 5.8-4.4 7.5-1 1.6-2.1 3.7-2.5 4.5-.3.8-2.1 3.9-4 6.8-1.8 2.9-3.3 5.4-3.3 5.6 0 .3-2 3.9-4.5 8-2.5 4.2-4.5 8.1-4.5 8.6 0 .6-.4 1-1 1-.5 0-1 .4-1 .8 0 .7-11.3 20.7-24.2 42.7-1.6 2.7-3.2 5.8-3.5 6.7-.3 1-.9 1.8-1.4 1.8-.5 0-.9.5-.9 1 0 .6-2.5 5.2-5.5 10.2-3 5-5.5 9.2-5.5 9.4 0 .2-1.8 3.3-4 6.9-2.2 3.6-4 7-4 7.5 0 .6-.4 1-1 1-.5 0-1 .6-1 1.3 0 .7-1.1 2.9-2.5 5-1.4 2-2.3 3.7-1.9 3.7.4 0 0 .8-.8 1.7-.9 1-3.3 4.9-5.5 8.8-2.2 3.8-7.5 13.1-11.8 20.5-4.3 7.4-8.7 15.1-9.7 17-1.1 1.9-2.4 3.9-2.8 4.5-.4.5-1.9 3-3.2 5.5-3.1 5.6-5 8.9-12.3 21.5-3.2 5.5-6.6 11.3-7.5 13-.9 1.6-6.5 11.3-12.3 21.4-5.9 10.1-10.7 18.8-10.7 19.2 0 .5-.4.9-1 .9-.5 0-1 .6-1 1.2 0 .7-1.8 4.1-4 7.6-2.2 3.4-4 6.5-4 6.8 0 .2-1.1 2.1-2.3 4.2-1.3 2-3.5 5.7-4.9 8.2-1.4 2.5-4.8 8.5-7.7 13.3-2.8 4.9-5.1 9.3-5.1 9.8s-.4.9-1 .9c-.5 0-1 .4-1 1 0 .5-3.5 6.9-7.8 14.2-4.3 7.4-8.1 14-8.5 14.8-.4.8-1.8 3.3-3.2 5.5-1.4 2.2-3 5.1-3.6 6.5-.6 1.3-1.3 2.7-1.7 3-.7.5-2 2.8-5.9 10-1 1.9-2.3 4-3 4.7-.6.7-1.5 2.3-1.9 3.6-.4 1.2-.9 2.4-1.3 2.7-.6.5-1.4 1.8-5.9 9.9-1.3 2.5-3.3 5.8-4.3 7.3-1.1 1.4-1.9 3-1.9 3.5 0 .4-.9 1.9-1.9 3.2-1.8 2.3-1.8 2.6-.1 5.5.9 1.7 7.7 13.4 15 26.1 7.3 12.6 14.4 25 15.8 27.5 1.4 2.5 5.2 8.9 8.4 14.3 3.2 5.5 5.8 10.2 5.8 10.6 0 1.8 9.1 10 13.6 12.2 7 3.4 17.8 3.4 24.9-.1 4.6-2.2 13.5-10.2 13.5-12 0-.8 10.2-18.6 11.7-20.5.5-.6 1.3-1.9 1.8-3 .8-1.7 7.2-12.9 15-26.3.6-.9 2.8-4.9 5-8.7 2.2-3.9 4.5-7.9 5.2-9 .7-1.1 1.5-2.7 1.9-3.5.4-.8 1-1.7 1.3-2 .6-.5 3.3-5.3 7-12.5.9-1.7 1.9-3.2 2.4-3.3.4-.2.7-.8.7-1.3s1.6-3.3 3.5-6.3 3.5-5.7 3.5-6c0-.2 3.8-7 8.5-15.1 4.7-8 8.5-15 8.5-15.6 0-.5.4-.9.9-.9s1.3-1 1.7-2.3c.3-1.2 1.2-2.9 1.9-3.7.7-.8 2.6-3.9 4.1-6.8 1.6-2.9 3.4-6.1 3.9-7 .6-.9 3.3-5.8 6.1-10.7 2.9-5 8.3-14.4 12.1-21 21.5-37 21.4-36.8 23.9-41.5 1.1-1.9 2.1-3.7 2.4-4 .3-.3 1.4-2.2 2.5-4.3 1.1-2 2.3-3.7 2.7-3.7.5 0 .7-.3.6-.8-.2-.6 1.8-4.6 4.7-9.4 1.3-2.3 13.4-23.2 16-27.7 1.9-3.3 7.2-12.4 9.5-16.1 4.9-8.1 11-19.3 11-20 0-.6.5-1 1-1 .6 0 1-.4 1-.8 0-.8 22.7-40.9 25-44.2.6-.8 1.6-2.7 2.3-4.3.6-1.5 1.5-2.7 1.9-2.7.4 0 .8-.5.8-1 0-.6 2.1-4.5 4.6-8.8 4.9-8.3 5.5-9.4 9.3-16.2 1.4-2.5 2.8-4.7 3.1-5 .4-.3 1.3-1.9 2.2-3.5.8-1.7 2.4-4.6 3.5-6.5 1.1-1.9 8.9-15.4 17.3-30s16-27.8 16.9-29.5c.9-1.6 1.8-3.2 2.1-3.5.5-.5 1.1-1.5 5.5-9.4 1.3-2.3 4.6-8.2 7.5-13.1 2.9-5 6.1-10.6 7.2-12.5 1.1-1.9 3.9-6.7 6.2-10.5 2.2-3.9 4.7-8.1 5.4-9.5.7-1.4 1.8-3.4 2.5-4.5s2.3-3.8 3.5-6c1.2-2.2 3.2-5.6 4.4-7.5 1.1-1.9 3.1-5.3 4.2-7.5 1.2-2.2 2.9-5.1 3.8-6.5.9-1.4 2.7-4.5 4.1-7 1.4-2.5 4.5-7.9 6.9-12 2.4-4.1 4.6-8.2 5.1-9 .4-.8 3.2-5.6 6.1-10.5 3-5 7.4-12.6 9.7-17 4-7.5 4.3-8.5 4.3-16 0-7.2-.3-8.6-3.3-14-3.4-6.1-11.7-13.5-15.2-13.5-1 0-2.1-.4-2.4-1-.4-.7-123.2-1-361.3-1-337.6.1-361 .2-365.4 1.8z"/><path d="M103.8 263c-1.4.4-1.9.9-1.1 1.3.6.4 2.9 3.8 5 7.5s4.3 7.6 5 8.7c.7 1.1 1.5 2.6 1.9 3.4.4.8 5.5 9.7 11.4 19.9l10.8 18.4-8.4 14.7c-4.6 8-8.8 15.3-9.3 16.1-1.1 1.7-16.1 27.5-17.7 30.5-.6 1.1-6.8 11.9-13.9 24-16.8 28.7-17.8 31.2-17.8 39.7.1 8.3 3.3 15.2 9.9 21.4 8.4 7.8 7.1 7.7 80.9 7.9 35.7.1 65.3.2 65.6.3.3.1 1.1 1.8 1.9 3.7.8 1.9 1.7 3.5 2.2 3.5.4 0 .8.7.8 1.5s.3 1.5.8 1.5c.4 0 1.3 1.5 2.1 3.2.8 1.8 3.2 6 5.3 9.4 2.1 3.4 3.8 6.4 3.8 6.8 0 .3 1.2 2.5 2.7 4.9 1.5 2.3 3.9 6.2 5.3 8.7 5.6 10.1 8.5 15 9 15 .4 0 17.4-28.8 24-40.9 5.2-9.4 6.5-11.6 7-12.1.3-.3 5-8.4 10.5-18 10.2-18.1 20.8-36.4 22.5-39 .6-.8 1.4-2.4 1.9-3.5s2.1-3.7 3.5-5.8c1.4-2.1 2.6-4 2.6-4.3 0-.3 2.3-4.3 5-9 2.8-4.7 5-8.9 5-9.4 0-.6.4-1 .8-1s1.3-1.2 2-2.8c.7-1.5 2.3-4.5 3.6-6.7 1.3-2.2 5.8-10.1 10.2-17.5 4.3-7.4 8.2-13.7 8.6-13.8.4-.2.8-1.2.8-2.3 0-1 .5-1.9 1-1.9.6 0 1-.5 1-1.1 0-.9 6.3-12.1 10-17.9.6-.8 1.3-2.2 1.7-3 .4-.8 2.7-4.9 5.1-9 2.5-4.1 5.3-8.9 6.2-10.5.9-1.7 2.9-5 4.4-7.5 1.5-2.5 3.3-5.9 4.2-7.5.8-1.7 2.3-4.4 3.4-6 1.1-1.7 2.3-3.7 2.7-4.5.4-.8 2.7-4.8 5.1-8.9 2.3-4 4.1-7.6 3.8-7.9-.7-.7-309.8-.9-312.8-.2z"/></svg>