<svg xmlns="http://www.w3.org/2000/svg" xmlns:xlink="http://www.w3.org/1999/xlink" width="192" height="168.238" viewBox="0 0 192 168.238">
  <defs>
    <linearGradient id="linear-gradient" y1="0.5" x2="1" y2="0.5" gradientUnits="objectBoundingBox">
      <stop offset="0" stop-color="#60a5fa"/>
      <stop offset="1" stop-color="#6366f1"/>
    </linearGradient>
  </defs>
  <g id="Group_2" data-name="Group 2" transform="translate(-405.648 -107.12)">
    <path id="Path_6" data-name="Path 6" d="M590.242,107.12H413.054a7.4,7.4,0,0,0-6.4,11.091l11.743,20.338H548.614L501.648,219.9h0L483.5,251.324l11.741,20.337a7.4,7.4,0,0,0,12.809,0l88.594-153.449A7.4,7.4,0,0,0,590.242,107.12Z" transform="translate(0 0)" fill="url(#linear-gradient)"/>
    <path id="Path_7" data-name="Path 7" d="M424.008,138.438l8.592,14.88-15.823,27.4a7.4,7.4,0,0,0,6.4,11.093h31.644l8.59,14.88,8.592-14.88h0l30.818-53.378Z" transform="translate(7.234 22.37)" fill="url(#linear-gradient)"/>
  </g>
</svg>
