<svg xmlns="http://www.w3.org/2000/svg" width="552.602" height="160" viewBox="0 0 552.602 160">
  <g id="Group_4" data-name="Group 4" transform="translate(-134 -430)">
    <g id="vuejs-seeklogo.com" transform="translate(134 430)">
      <path id="Path_9" data-name="Path 9" d="M148.406,0h37.1L92.754,160,0,0H70.957l21.8,37.1L114.087,0Z" fill="#41b883"/>
      <path id="Path_10" data-name="Path 10" d="M0,0,92.754,160,185.507,0h-37.1L92.754,96,36.638,0Z" fill="#41b883"/>
      <path id="Path_11" data-name="Path 11" d="M50.56,0l56.116,96.464L162.328,0H128.009L106.676,37.1,84.879,0Z" transform="translate(-13.922)" fill="#35495e"/>
    </g>
    <path id="Path_12" data-name="Path 12" d="M41.423-119.232v25.3H16.7v8.978H41.423v25.185h9.911V-84.952H76.169V-93.93H51.334v-25.3Z" transform="translate(307.151 593.831)" fill="#476582"/>
    <g id="Group_5" data-name="Group 5" transform="translate(417.478 430)">
      <circle id="Ellipse_2" data-name="Ellipse 2" cx="7.342" cy="7.342" r="7.342" transform="translate(206.642 28.512)" fill="#2c3e50"/>
      <path id="Path_13" data-name="Path 13" d="M183.787,60.424V86.651c0,5.571-1,25.97-21.741,25.97-21.684,0-21.227-20.37-21.227-28.227V60.453H129.676V87.337s-2.314,36.712,31.8,36.712,32.969-35.569,32.969-35.569V60.424H183.787Zm49.482-47.511h11V121.048h-11ZM143.99,135.047c-22.684,0-55.682-3.428-76.652-3.657a38.176,38.176,0,0,0-9.314,1.114l3.714-3.314c4.085-3.685,10.742-5.971,12.4-6.285,26.969-5.314,47.082-26.77,47.082-60.8C121.22,23.77,94.079,0,60.6,0S0,21.97,0,62.081c0,36.226,24.255,59.424,55.167,61.853,0,0,1.628.029,1.828,1.028.171.886-1.371,2.171-1.371,2.171l-18.4,17.027,3.543,3.828,6.8-6.085c3.8-3.028,10.028-6.742,17.742-6.742,25.512,0,53.768,25.455,80.023,24.827,38.4-.914,47.339-26.57,48.311-29.884C193.7,129.991,177.759,135.047,143.99,135.047ZM11.256,62.081c0-32.655,22.084-50.568,49.368-50.568,27.255,0,49.368,19.341,49.368,50.568,0,32.169-22.084,50.568-49.368,50.568-27.284-.029-49.368-19.37-49.368-50.568ZM258.124,12.913h11V121.048h-11Zm-49.711,47.4h11v60.71h-11Z" fill="#2c3e50"/>
    </g>
  </g>
</svg>
